:SAMPLES-PER-SECOND 30
:FULLY-SPECIFIED
:DEGREES
296
root  -3.75567 40.8682 0.916119 4.63267 -85.8934 -8.64819
RightUpLeg  9.50551 -2.4267 -1.81518
RightLeg  -2.48043 -20.2217 1.06325
RightFoot  -1.2119 -0.383503 4.23131
RightToes  -3.13006e-008 1.75238e-005 3.56266e-009
Spine  -11.2294 0.952198 -2.03893
Spine1  15.413 0.652685 1.58536
HEad  -16.7311 -3.6063 0.903005
LeftShoulder1  1.81373 -3.47841 -19.4847
LeftArm  -54.6691 -14.7322 -25.5705
LeftForeArm  153.829 -62.7215 -159.27
LeftHand  -1.05812 -1.87987 17.0375
RightShoulder  2.51874 5.37325 22.139
RightArm  -35.3835 8.17772 35.9265
RightForeArm  131.903 67.6516 151.701
RightHand  -1.91932 9.06298 -15.672
LeftUpLeg  7.08144 2.47296 2.27497
LeftLeg  1.19899 8.68223 -0.642542
LeftFoot  -3.89643 0.201836 -2.74363
LeftToes  4.78685e-008 1.46778e-008 1.34523e-009
297
root  -3.69548 40.8383 0.958415 6.50781 -86.4442 -11.1955
RightUpLeg  9.63148 -2.59087 -1.92988
RightLeg  -1.49303 -19.4285 0.755167
RightFoot  -1.57424 -0.382649 4.35011
RightToes  -3.13006e-008 1.75238e-005 3.56266e-009
Spine  -10.9456 0.987979 -1.90545
Spine1  16.5431 0.623286 1.6576
HEad  -16.5386 -4.05449 0.941357
LeftShoulder1  1.79426 -3.40231 -19.4888
LeftArm  -54.1297 -15.5859 -26.0125
LeftForeArm  153.272 -63.0255 -158.957
LeftHand  -0.97587 -1.16994 17.3646
RightShoulder  2.651 5.66541 22.7148
RightArm  -34.9891 7.55939 35.6089
RightForeArm  132.373 67.7611 151.608
RightHand  -2.00868 9.36246 -16.06
LeftUpLeg  7.31885 2.63679 2.31986
LeftLeg  2.18982 9.0736 -0.481822
LeftFoot  -4.44081 0.188909 -2.68872
LeftToes  4.78685e-008 1.46778e-008 1.34523e-009
298
root  -3.61824 40.7921 0.985655 6.5022 -86.7652 -12.032
RightUpLeg  9.69455 -2.83005 -2.10284
RightLeg  0.0301087 -18.8061 0.230159
RightFoot  -2.21826 -0.382511 4.60248
RightToes  -3.13006e-008 1.75238e-005 3.56266e-009
Spine  -10.6266 1.03949 -2.22694
Spine1  18.0434 0.520293 2.25612
HEad  -16.8013 -4.19318 0.752425
LeftShoulder1  1.81367 -3.45311 -19.5869
LeftArm  -53.9722 -17.6035 -26.8098
LeftForeArm  153.765 -63.7888 -158.34
LeftHand  -1.01806 -1.79351 16.5557
RightShoulder  2.71153 5.77161 23.0542
RightArm  -34.0985 6.82464 35.6739
RightForeArm  131.168 67.9962 151.146
RightHand  -2.09069 9.26288 -16.7966
LeftUpLeg  7.51171 2.79054 2.31336
LeftLeg  3.51387 9.18299 -0.321693
LeftFoot  -4.97747 0.155648 -2.25771
LeftToes  4.78685e-008 1.46778e-008 1.34523e-009
299
root  -3.54371 40.7206 0.962032 7.64058 -86.3564 -13.8669
RightUpLeg  9.54148 -2.90487 -1.88785
RightLeg  1.86837 -19.0887 -0.362021
RightFoot  -3.10878 -0.374986 4.91169
RightToes  -3.13006e-008 1.75238e-005 3.56266e-009
Spine  -10.5833 0.962962 -2.83002
Spine1  19.6226 0.184811 3.22551
HEad  -17.0239 -4.72117 0.813276
LeftShoulder1  1.88839 -3.84042 -19.2036
LeftArm  -53.0308 -19.3457 -27.7013
LeftForeArm  152.242 -64.5156 -157.51
LeftHand  -1.1121 -2.10615 17.3391
RightShoulder  2.82754 5.94114 23.7957
RightArm  -33.3322 5.06817 35.7567
RightForeArm  129.88 68.4534 150.345
RightHand  -2.12833 9.856 -16.4483
LeftUpLeg  7.00779 3.16774 2.7088
LeftLeg  5.75451 8.23478 -0.092925
LeftFoot  -5.85637 0.132453 -2.03883
LeftToes  4.78685e-008 1.46778e-008 1.34523e-009
300
root  -3.44199 40.6353 0.867794 5.6626 -85.1877 -12.2917
RightUpLeg  8.96594 -3.11372 -1.69673
RightLeg  4.09838 -20.0459 -0.970847
RightFoot  -4.27129 -0.348817 5.17393
RightToes  -3.13006e-008 1.75238e-005 3.56266e-009
Spine  -10.1184 0.538832 -4.49585
Spine1  20.486 -0.669325 4.9184
HEad  -16.8461 -5.21505 1.09055
LeftShoulder1  1.86523 -3.88536 -18.6939
LeftArm  -52.397 -22.749 -29.0627
LeftForeArm  151.992 -65.3683 -156.648
LeftHand  -0.96887 -1.35489 16.7892
RightShoulder  3.01792 6.31336 24.6431
RightArm  -32.0347 2.75866 35.8559
RightForeArm  129.894 69.059 149.445
RightHand  -1.95405 9.763 -15.2497
LeftUpLeg  5.91151 3.89441 3.23879
LeftLeg  8.23109 6.04941 -0.00934272
LeftFoot  -6.67357 0.131985 -2.2528
LeftToes  4.78685e-008 1.46778e-008 1.34523e-009
